<svg width="20" height="18" viewBox="0 0 20 18" fill="none" xmlns="http://www.w3.org/2000/svg">
<path d="M20 7.85714C20 3.90625 15.5246 0.714285 10 0.714285C4.47545 0.714285 0 3.91741 0 7.85714C0 10.1228 1.47321 12.1429 3.77232 13.4487C3.24777 15.3125 2.4442 15.9821 1.74107 16.7746C1.57366 16.9754 1.38393 17.1429 1.43973 17.4219C1.43973 17.4219 1.43973 17.4219 1.43973 17.433C1.49554 17.7009 1.72991 17.8795 1.97545 17.8571C2.41071 17.8013 2.84598 17.7232 3.24777 17.6116C5.17857 17.1205 6.91964 16.2054 8.3817 14.9107C8.90625 14.9665 9.45313 15 10 15C15.5246 15 20 11.808 20 7.85714Z" fill="#898989"/>
</svg>
