<svg width="18" height="18" viewBox="0 0 18 18" fill="none" xmlns="http://www.w3.org/2000/svg">
<path d="M13.5714 10.2857C12.6339 10.2857 11.7746 10.654 11.1384 11.2455L7.12054 9.23661C7.1317 9.11384 7.14286 8.97991 7.14286 8.85714C7.14286 8.73437 7.1317 8.60045 7.12054 8.47768L11.1384 6.46875C11.7746 7.06027 12.6339 7.42857 13.5714 7.42857C15.5469 7.42857 17.1429 5.83259 17.1429 3.85714C17.1429 1.8817 15.5469 0.285713 13.5714 0.285713C11.596 0.285713 10 1.8817 10 3.85714C10 3.97991 10.0112 4.11384 10.0223 4.23661L6.00446 6.24554C5.3683 5.65402 4.50893 5.28571 3.57143 5.28571C1.59598 5.28571 0 6.8817 0 8.85714C0 10.8326 1.59598 12.4286 3.57143 12.4286C4.50893 12.4286 5.3683 12.0603 6.00446 11.4687L10.0223 13.4777C10.0112 13.6004 10 13.7344 10 13.8571C10 15.8326 11.596 17.4286 13.5714 17.4286C15.5469 17.4286 17.1429 15.8326 17.1429 13.8571C17.1429 11.8817 15.5469 10.2857 13.5714 10.2857Z" fill="#898989"/>
</svg>
