<svg width="40" height="14" viewBox="0 0 40 14" fill="none" xmlns="http://www.w3.org/2000/svg">
<path d="M13.356 6.808V6.088H6.966V8.518H10.242C9.756 9.832 8.694 10.66 7.038 10.66C4.878 10.66 3.312 9.058 3.312 6.898C3.312 4.594 4.95 3.028 7.11 3.028C8.406 3.028 9.414 3.64 10.26 4.702L12.312 2.956C11.178 1.354 9.432 0.417999 7.11 0.417999C3.132 0.417999 0.468 3.298 0.468 6.826C0.468 10.372 3.204 13.252 7.11 13.252C10.8 13.252 13.356 10.498 13.356 6.808ZM22.6429 8.41H19.4389L21.0409 3.586L22.6429 8.41ZM24.1729 13H27.1789L22.8409 0.669999H19.4209L15.0649 13H17.9269L18.6289 10.876H23.4709L24.1729 13ZM35.2531 9.562C38.1511 9.562 39.8971 7.546 39.8971 5.026C39.8971 2.632 38.3131 0.669999 35.5051 0.669999H30.1951V13H32.9851V9.562H35.2531ZM35.0911 3.226C36.3871 3.226 37.0891 3.964 37.0891 5.098C37.0891 6.232 36.3871 7.006 35.1811 7.006H32.9851V3.226H35.0911Z" fill="#FF0000"/>
</svg>
