<svg width="12" height="12" viewBox="0 0 12 12" fill="none" xmlns="http://www.w3.org/2000/svg">
<path d="M7.18262 5.73458C7.18262 5.64529 7.13797 5.54484 7.07101 5.47788L1.87012 0.276985C1.80315 0.210022 1.70271 0.165378 1.61342 0.165378C1.52414 0.165378 1.42369 0.210022 1.35672 0.276985L0.798689 0.835022C0.731724 0.901985 0.687081 1.00243 0.687081 1.09172C0.687081 1.181 0.731724 1.28145 0.798689 1.34841L5.18485 5.73458L0.798689 10.1207C0.731724 10.1877 0.687081 10.2881 0.687081 10.3774C0.687081 10.4667 0.731724 10.5672 0.798689 10.6341L1.35672 11.1922C1.42369 11.2591 1.52414 11.3038 1.61342 11.3038C1.70271 11.3038 1.80315 11.2591 1.87012 11.1922L7.07101 5.99127C7.13797 5.92431 7.18262 5.82386 7.18262 5.73458ZM11.4683 5.73458C11.4683 5.64529 11.4237 5.54484 11.3567 5.47788L6.15583 0.276985C6.08887 0.210022 5.98842 0.165378 5.89914 0.165378C5.80985 0.165378 5.7094 0.210022 5.64244 0.276985L5.0844 0.835022C5.01744 0.901985 4.9728 1.00243 4.9728 1.09172C4.9728 1.181 5.01744 1.28145 5.0844 1.34841L9.47056 5.73458L5.0844 10.1207C5.01744 10.1877 4.9728 10.2881 4.9728 10.3774C4.9728 10.4667 5.01744 10.5672 5.0844 10.6341L5.64244 11.1922C5.7094 11.2591 5.80985 11.3038 5.89914 11.3038C5.98842 11.3038 6.08887 11.2591 6.15583 11.1922L11.3567 5.99127C11.4237 5.92431 11.4683 5.82386 11.4683 5.73458Z" fill="white"/>
</svg>
