<svg width="45" height="77" viewBox="0 0 45 77" fill="none" xmlns="http://www.w3.org/2000/svg">
<path d="M44.5848 6.71428C44.5848 6.03125 44.2813 5.4241 43.8259 4.96875L40.0312 1.1741C39.5759 0.71875 38.8929 0.415172 38.2857 0.415172C37.6786 0.415172 36.9955 0.71875 36.5402 1.1741L1.17411 36.5402C0.71875 36.9955 0.415179 37.6786 0.415179 38.2857C0.415179 38.8929 0.71875 39.5759 1.17411 40.0312L36.5402 75.3973C36.9955 75.8527 37.6786 76.1562 38.2857 76.1562C38.8929 76.1562 39.5759 75.8527 40.0312 75.3973L43.8259 71.6027C44.2813 71.1473 44.5848 70.4643 44.5848 69.8571C44.5848 69.25 44.2813 68.567 43.8259 68.1116L14 38.2857L43.8259 8.45982C44.2813 8.00446 44.5848 7.32142 44.5848 6.71428Z" fill="#898989"/>
</svg>
