<svg width="46" height="77" viewBox="0 0 46 77" fill="none" xmlns="http://www.w3.org/2000/svg">
<path d="M45.1562 38.2857C45.1562 37.6786 44.8527 36.9955 44.3973 36.5402L9.03125 1.1741C8.57589 0.71875 7.89286 0.415172 7.28571 0.415172C6.67857 0.415172 5.99554 0.71875 5.54018 1.1741L1.74554 4.96875C1.29018 5.4241 0.986607 6.10714 0.986607 6.71428C0.986607 7.32142 1.29018 8.00446 1.74554 8.45982L31.5714 38.2857L1.74554 68.1116C1.29018 68.567 0.986607 69.25 0.986607 69.8571C0.986607 70.5402 1.29018 71.1473 1.74554 71.6027L5.54018 75.3973C5.99554 75.8527 6.67857 76.1562 7.28571 76.1562C7.89286 76.1562 8.57589 75.8527 9.03125 75.3973L44.3973 40.0312C44.8527 39.5759 45.1562 38.8929 45.1562 38.2857Z" fill="#898989"/>
</svg>
